<svg width="80" height="32" viewBox="0 0 80 32" fill="none" xmlns="http://www.w3.org/2000/svg">
<rect width="80" height="32" rx="16" fill="#1D1B1B"/>
<rect width="32" height="32" rx="16" fill="#EB5757"/>
<path d="M23.6107 17.1172C23.447 17.0761 23.2833 17.1172 23.1401 17.22C22.6081 17.6719 21.9944 18.0418 21.3192 18.2883C20.6849 18.5348 19.9893 18.6581 19.2528 18.6581C17.5955 18.6581 16.0815 17.9801 14.9972 16.8912C13.9128 15.8023 13.2377 14.282 13.2377 12.6178C13.2377 11.9193 13.3604 11.2413 13.565 10.625C13.7901 9.96753 14.1174 9.37172 14.5471 8.8581C14.7312 8.6321 14.6903 8.30338 14.4652 8.11847C14.322 8.01575 14.1583 7.97466 13.9947 8.01575C12.2556 8.48828 10.7416 9.53608 9.65723 10.9332C8.61379 12.3097 8 14.0149 8 15.864C8 18.1034 8.90022 20.1374 10.3733 21.6166C11.8464 23.0959 13.8514 23.9998 16.102 23.9998C17.9843 23.9998 19.7233 23.3424 21.1146 22.2535C22.5263 21.1441 23.5493 19.5621 23.9789 17.7541C24.0608 17.4665 23.8971 17.1789 23.6107 17.1172Z" fill="#FDFBEE"/>
<path fill-rule="evenodd" clip-rule="evenodd" d="M63.6402 3.85979C63.6402 3.39683 64.0371 3 64.5 3C64.963 3 65.3598 3.39683 65.3598 3.85979V6.40608C65.3598 6.86905 64.963 7.26587 64.5 7.26587C64.0371 7.26587 63.6402 6.86905 63.6402 6.40608V3.85979ZM68.9312 11.0695C67.8068 9.94516 66.2195 9.21765 64.5 9.21765C62.7804 9.21765 61.1931 9.9121 60.0687 11.0695C58.9444 12.1938 58.2169 13.7811 58.2169 15.5007C58.2169 17.2203 58.9444 18.8076 60.0687 19.9319C61.1931 21.0563 62.7804 21.7838 64.5 21.7838C66.2195 21.7838 67.8068 21.0893 68.9312 19.9319C70.0555 18.8076 70.783 17.2203 70.783 15.5007C70.783 13.7811 70.0886 12.1938 68.9312 11.0695ZM67.7407 18.7415C66.914 19.5682 65.7566 20.0642 64.5 20.0642C63.2433 20.0642 62.0859 19.5682 61.2592 18.7415C60.4325 17.9147 59.9365 16.7573 59.9365 15.5007C59.9365 14.2441 60.4325 13.0867 61.2592 12.26C62.0859 11.4333 63.2433 10.9372 64.5 10.9372C65.7566 10.9372 66.914 11.4333 67.7407 12.26C68.5674 13.0867 69.0634 14.2441 69.0634 15.5007C69.0634 16.7573 68.5674 17.9147 67.7407 18.7415ZM76.1403 14.64H73.594C73.131 14.64 72.7342 15.0368 72.7342 15.4998C72.7342 15.9628 73.131 16.3596 73.594 16.3596H76.1403C76.6032 16.3596 77 15.9628 77 15.4998C77 15.0368 76.6032 14.64 76.1403 14.64ZM63.6402 24.594C63.6402 24.1311 64.0371 23.7343 64.5 23.7343C64.963 23.7343 65.3598 24.1311 65.3598 24.594V27.1403C65.3598 27.6033 64.963 28.0001 64.5 28.0001C64.0371 28.0001 63.6402 27.6033 63.6402 27.1403V24.594ZM73.3292 23.1387L71.5105 21.3199C71.2128 20.9892 70.6507 20.9892 70.32 21.3199C69.9893 21.6506 69.9893 22.1797 70.32 22.5104L72.1388 24.3292C72.4695 24.6599 72.9986 24.6599 73.3292 24.3292C73.6599 23.9985 73.6599 23.4694 73.3292 23.1387ZM73.3625 6.67087C73.0318 6.34018 72.5027 6.34018 72.172 6.67087L70.3533 8.48965C70.0226 8.82034 70.0226 9.34944 70.3533 9.68013C70.6509 10.0108 71.213 10.0108 71.5437 9.68013L73.3625 7.86134C73.6932 7.53066 73.6932 7.00155 73.3625 6.67087ZM52.8598 14.64H55.4061C55.869 14.64 56.2659 15.0368 56.2659 15.4998C56.2659 15.9628 55.869 16.3596 55.4061 16.3596H52.8598C52.3638 16.3596 52 15.9628 52 15.4998C52 15.0368 52.3968 14.64 52.8598 14.64ZM58.6469 21.3199C58.3492 20.9892 57.7871 20.9892 57.4564 21.3199L55.6376 23.1387C55.3069 23.4694 55.3069 23.9985 55.6376 24.3292C55.9683 24.6599 56.4974 24.6599 56.8281 24.3292L58.6469 22.5104C58.9775 22.1797 58.9775 21.6506 58.6469 21.3199ZM56.8281 6.67087L58.6469 8.48965C58.9775 8.82034 58.9775 9.34944 58.6469 9.68013C58.3162 10.0108 57.7871 10.0108 57.4564 9.68013L55.6376 7.86134C55.3069 7.53066 55.3069 7.00155 55.6376 6.67087C55.9683 6.34018 56.4974 6.34018 56.8281 6.67087Z" fill="#FDFBEE"/>
</svg>
