<svg width="80" height="32" viewBox="0 0 80 32" fill="none" xmlns="http://www.w3.org/2000/svg">
<rect width="80" height="32" rx="16" fill="#1D1B1B"/>
<path d="M23.6218 17.1056C23.4582 17.0646 23.2946 17.1056 23.1515 17.2082C22.6199 17.6596 22.0065 18.029 21.3317 18.2752C20.6978 18.5214 20.0026 18.6446 19.2665 18.6446C17.6103 18.6446 16.0972 17.9674 15.0135 16.8799C13.9297 15.7924 13.255 14.274 13.255 12.612C13.255 11.9143 13.3777 11.2372 13.5821 10.6216C13.8071 9.96503 14.1342 9.36998 14.5636 8.857C14.7476 8.63129 14.7067 8.30299 14.4818 8.11832C14.3387 8.01573 14.1751 7.97469 14.0115 8.01573C12.2735 8.48766 10.7604 9.53413 9.67668 10.9294C8.63387 12.3042 8 14.0073 8 15.8745C8 18.1111 8.89968 20.1424 10.3719 21.6198C11.8441 23.0972 13.8684 24 16.0972 24C17.9783 24 19.7163 23.3434 21.1068 22.2559C22.5176 21.1479 23.54 19.5679 23.9694 17.7622C24.0716 17.4545 23.9081 17.1672 23.6218 17.1056ZM20.4933 21.3941C19.3074 22.338 17.7943 22.9125 16.1381 22.9125C14.1956 22.9125 12.4371 22.1123 11.1693 20.8401C9.90161 19.5679 9.10416 17.8033 9.10416 15.854C9.10416 14.233 9.63579 12.7556 10.5559 11.5655C11.1898 10.7447 11.9872 10.0676 12.9074 9.59569C12.8051 9.82139 12.7029 10.0471 12.6211 10.2933C12.3553 11.032 12.2326 11.8117 12.2326 12.6325C12.2326 14.5818 13.0301 16.3669 14.2978 17.6391C15.5655 18.9113 17.3445 19.7115 19.287 19.7115C20.1457 19.7115 20.9636 19.5679 21.7202 19.2806C21.986 19.178 22.2518 19.0754 22.4972 18.9523C22.0065 19.8962 21.3317 20.7375 20.4933 21.3941Z" fill="#FDFBEE"/>
<rect x="48" width="32" height="32" rx="16" fill="#EB5757"/>
<path fill-rule="evenodd" clip-rule="evenodd" d="M64.5 7.26587C64.963 7.26587 65.3598 6.86905 65.3598 6.40608V3.85979C65.3598 3.39683 64.963 3 64.5 3C64.037 3 63.6402 3.39683 63.6402 3.85979V6.40608C63.6402 6.86905 64.037 7.26587 64.5 7.26587ZM68.9312 11.0688C67.8069 9.94444 66.2196 9.21693 64.5 9.21693C62.7804 9.21693 61.1931 9.91138 60.0688 11.0688C58.9444 12.1931 58.2169 13.7804 58.2169 15.5C58.2169 17.2196 58.9444 18.8069 60.0688 19.9312C61.1931 21.0556 62.7804 21.7831 64.5 21.7831C66.2196 21.7831 67.8069 21.0886 68.9312 19.9312C70.0556 18.8069 70.7831 17.2196 70.7831 15.5C70.7831 13.7804 70.0886 12.1931 68.9312 11.0688ZM73.3624 7.86111L71.5437 9.67989C71.1799 10.0106 70.6508 10.0106 70.3532 9.67989C70.0225 9.34921 70.0225 8.82011 70.3532 8.48942L72.172 6.67064C72.5026 6.33995 73.0317 6.33995 73.3624 6.67064C73.6931 7.00132 73.6931 7.53042 73.3624 7.86111ZM76.1402 14.6402H73.5939C73.131 14.6402 72.7341 15.037 72.7341 15.5C72.7341 15.963 73.131 16.3598 73.5939 16.3598H76.1402C76.6032 16.3598 77 15.963 77 15.5C77 15.037 76.6032 14.6402 76.1402 14.6402ZM70.3201 21.3201C70.6508 20.9894 71.1799 20.9894 71.5106 21.3201L73.3294 23.1389C73.6601 23.4696 73.6601 23.9987 73.3294 24.3294C72.9987 24.6601 72.4696 24.6601 72.1389 24.3294L70.3201 22.5106C69.9894 22.1799 69.9894 21.6508 70.3201 21.3201ZM64.5 23.7341C64.037 23.7341 63.6402 24.131 63.6402 24.5939V27.1402C63.6402 27.6032 64.037 28 64.5 28C64.963 28 65.3598 27.6032 65.3598 27.1402V24.5939C65.3598 24.131 64.963 23.7341 64.5 23.7341ZM55.6376 23.1389L57.4563 21.3201C57.8201 20.9894 58.3492 20.9894 58.6468 21.3201C58.9775 21.6508 58.9775 22.1799 58.6468 22.5106L56.828 24.3294C56.4974 24.6601 55.9683 24.6601 55.6376 24.3294C55.3069 23.9987 55.3069 23.4696 55.6376 23.1389ZM56.2659 15.5C56.2659 15.037 55.869 14.6402 55.4061 14.6402H52.8598C52.3968 14.6402 52 15.037 52 15.5C52 15.963 52.3968 16.3598 52.8598 16.3598H55.4061C55.869 16.3598 56.2659 15.963 56.2659 15.5ZM58.6468 9.67989C58.3161 10.0106 57.787 10.0106 57.4563 9.67989L55.6376 7.86111C55.3069 7.53042 55.3069 7.00132 55.6376 6.67064C55.9683 6.33995 56.4974 6.33995 56.828 6.67064L58.6468 8.48942C58.9775 8.82011 58.9775 9.34921 58.6468 9.67989Z" fill="#FDFBEE"/>
</svg>
