<svg width="107" height="69" viewBox="0 0 107 69" fill="none" xmlns="http://www.w3.org/2000/svg">
<g filter="url(#filter0_d_208_2)">
<path d="M30.7841 31.6926H24.8987V23.9471H17.8472V31.6926H11.9618V11.6627H17.8472V19.2693H24.8987V11.6627H30.7841V31.6926Z" fill="#EB5757"/>
<path d="M46.9135 31.6926V20.5463H46.8025L39.4457 31.6926H33.8379V11.6627H39.7233V22.8089H39.8344L47.1912 11.6627H52.799V31.6926H46.9135Z" fill="#EB5757"/>
<path d="M61.2385 23.614V19.3109H63.8342C65.4166 19.3109 66.416 18.5753 66.416 17.3676C66.416 16.1461 65.4166 15.4105 63.7648 15.4105C62.0991 15.4105 60.9748 16.3682 60.9748 17.7702H55.6584C55.6862 13.7031 58.8926 11.1074 63.8897 11.1074C68.7202 11.1074 71.885 13.2867 71.885 16.6042C71.885 18.9223 70.3443 20.7129 68.0539 21.1154V21.2265C70.8023 21.4902 72.5791 23.378 72.5791 26.0292C72.5791 29.7354 69.0117 32.2478 63.737 32.2478C58.7955 32.2478 55.478 29.6105 55.2975 25.5295H60.9053C60.9331 26.876 62.0574 27.6949 63.8619 27.6949C65.4721 27.6949 66.5409 26.8204 66.5409 25.5295C66.5409 24.3219 65.5138 23.614 63.8064 23.614H61.2385Z" fill="#EB5757"/>
<path d="M84.697 11.3156C90.8878 11.3156 94.7883 15.2855 94.7883 21.6846C94.7883 28.0836 90.8878 32.0396 84.697 32.0396C78.4923 32.0396 74.6057 28.0836 74.6057 21.6846C74.6057 15.2855 78.5061 11.3156 84.697 11.3156ZM84.697 16.0073C82.2401 16.0073 80.6021 18.2144 80.6021 21.6846C80.6021 25.1409 82.2262 27.3479 84.697 27.3479C87.1677 27.3479 88.7918 25.1409 88.7918 21.6846C88.7918 18.2144 87.1539 16.0073 84.697 16.0073Z" fill="#EB5757"/>
<path d="M22.3724 56.8925H12.1978V36.8626H22.0392C26.134 36.8626 28.5354 38.7365 28.5354 41.8597C28.5354 44.1639 26.7864 45.899 24.4684 46.1905V46.3015C27.1751 46.3709 29.4377 48.4114 29.4377 51.0626C29.4377 54.5744 26.6615 56.8925 22.3724 56.8925ZM18.0832 40.9019V44.8857H20.3596C21.8727 44.8857 22.8165 44.0945 22.8165 42.8868C22.8165 41.6514 21.9282 40.9019 20.4429 40.9019H18.0832ZM18.0832 52.8532H20.5956C22.414 52.8532 23.4551 52.0342 23.4551 50.5212C23.4551 49.0915 22.4001 48.2587 20.6373 48.2587H18.0832V52.8532Z" fill="#EB5757"/>
<path d="M44.7343 56.8925V45.7463H44.6232L37.2664 56.8925H31.6586V36.8626H37.544V48.0088H37.6551L45.0119 36.8626H50.6197V56.8925H44.7343Z" fill="#EB5757"/>
<path d="M72.4958 56.8925H66.6103V49.1471H59.5589V56.8925H53.6735V36.8626H59.5589V44.4692H66.6103V36.8626H72.4958V56.8925Z" fill="#EB5757"/>
<path d="M88.764 56.8925L87.723 52.9087H81.6154L80.5744 56.8925H74.5779L81.1157 36.8626H88.5003L95.0381 56.8925H88.764ZM84.6137 41.4849L82.6843 48.7584H86.6542L84.7247 41.4849H84.6137Z" fill="#EB5757"/>
</g>
<defs>
<filter id="filter0_d_208_2" x="0.987319" y="0.325315" width="105.025" height="67.7341" filterUnits="userSpaceOnUse" color-interpolation-filters="sRGB">
<feFlood flood-opacity="0" result="BackgroundImageFix"/>
<feColorMatrix in="SourceAlpha" type="matrix" values="0 0 0 0 0 0 0 0 0 0 0 0 0 0 0 0 0 0 127 0" result="hardAlpha"/>
<feOffset dy="0.192366"/>
<feGaussianBlur stdDeviation="5.48724"/>
<feComposite in2="hardAlpha" operator="out"/>
<feColorMatrix type="matrix" values="0 0 0 0 0 0 0 0 0 0 0 0 0 0 0 0 0 0 0.45 0"/>
<feBlend mode="normal" in2="BackgroundImageFix" result="effect1_dropShadow_208_2"/>
<feBlend mode="normal" in="SourceGraphic" in2="effect1_dropShadow_208_2" result="shape"/>
</filter>
</defs>
</svg>
